<svg xmlns="http://www.w3.org/2000/svg" width="104.246" height="104.246" viewBox="0 0 104.246 104.246"><defs><style>.a{fill:#007ecd;}</style></defs><g transform="translate(-820 -820)"><path class="a" d="M922.509,820H877.335a1.738,1.738,0,0,0-1.737,1.737v1.737H851.274a1.738,1.738,0,0,0-1.737,1.737H829.1l-6.583-3.292A1.737,1.737,0,0,0,820,823.475V847.8a1.737,1.737,0,0,0,2.515,1.554l6.583-3.292h3.064v13.9a1.738,1.738,0,0,0,.292.964l6.423,9.634L827.55,896.447h-5.813A1.738,1.738,0,0,0,820,898.185v24.324a1.738,1.738,0,0,0,1.737,1.737H878.15a22.605,22.605,0,0,0,21.333-15.166l9.027-25.951,6.945-19.1a1.742,1.742,0,0,0,.1-.594V851.274h6.95a1.738,1.738,0,0,0,1.737-1.737v-27.8A1.738,1.738,0,0,0,922.509,820Zm-46.727,42.476,6.607,13.214-6.7,17.416a5.242,5.242,0,0,1-4.865,3.341h-13.47L865.04,878h0c0-.008.008-.015.011-.023L872,860.606a1.726,1.726,0,0,0,.125-.645V847.8H875.6v13.9a1.748,1.748,0,0,0,.183.777ZM875.6,826.95v17.375H853.011V826.95Zm-52.123-.664,3.475,1.737v15.228l-3.475,1.737Zm6.95,16.3v-13.9h19.112v13.9h-6.36l-.237-2.141a5.4,5.4,0,0,0-10.776.6v1.545Zm5.212-1.545a1.93,1.93,0,0,1,3.848-.213l1.374,12.375a1.738,1.738,0,0,0,.764,1.253,9.947,9.947,0,0,1,4.438,8.294v.685h3.475v-.685a13.415,13.415,0,0,0-5.308-10.7l-.665-5.986H847.8v5.212h3.475V847.8h3.475v3.475h3.475V847.8H861.7v3.475h3.475V847.8h3.475v11.827L862.417,875.2l-20.464-6.3-6.315-9.472ZM841.82,872.5l19.277,5.932-7.506,18.013H831.344ZM896.2,907.939a19.126,19.126,0,0,1-18.051,12.833H823.475V899.922h47.35a8.738,8.738,0,0,0,8.108-5.568l6.392-16.618,19.314,5.943Zm15.884-44.809L905.8,880.4l-20.3-6.245-6.434-12.868V851.274h5.212v8.687h3.475V837.374a1.737,1.737,0,0,1,3.475,0v12.162h3.475V833.9a1.737,1.737,0,0,1,3.475,0v15.637h3.475V837.374a1.737,1.737,0,0,1,3.475,0v12.162h3.475v-5.212a1.737,1.737,0,1,1,3.475,0Zm8.687-15.33h-5.212v-3.475a5.211,5.211,0,0,0-6.95-4.914v-2.036a133.36,133.36,0,0,1-12.162-8.687,10.444,10.444,0,0,1-9.879,4.374,5.21,5.21,0,0,0-2.283,4.313V847.8h-5.212V823.475h41.7Zm0,0"/></g></svg>