<svg xmlns="http://www.w3.org/2000/svg" width="114.856" height="114.86" viewBox="0 0 114.856 114.86"><defs><style>.a{fill:#007ecd;}</style></defs><g transform="translate(-769.807 -770)"><g transform="translate(769.807 834.061)"><path class="a" d="M871.779,1030.953l-.589.318c-2.384-2.892-6.513-4.013-9.659-2.418l-.033.017-1.393.749a10.577,10.577,0,0,0-12.113-1.094l-7.5,4.079h-9.981a14.4,14.4,0,0,1-6.24-1.431l-1.373-.663a23.55,23.55,0,0,0-24.511,2.393c-.033.025-.064.049-.1.078l-3.314,2.951a11.5,11.5,0,0,1-4.339,2.418l-1.882-6.178a1.494,1.494,0,0,0-1.429-1.058H771.3a1.491,1.491,0,0,0-1.48,1.673l5.343,43.815a1.493,1.493,0,0,0,1.481,1.311h24.044a1.493,1.493,0,0,0,1.428-1.927l-3.158-10.366,9.838-6.217a5.916,5.916,0,0,1,4.318-.559c.031.008.062.015.094.021l20.012,3.685a25.9,25.9,0,0,0,16-2.26,1.53,1.53,0,0,0,.183-.107l34.612-23.765a1.493,1.493,0,0,0,.434-2,9.5,9.5,0,0,0-12.67-3.465Zm-8.883.555c1.819-.912,4.11-.164,5.573,1.232l-13.125,7.08-.772.406a11.34,11.34,0,0,0-1.8-3.265Zm-13.458-.37.035-.02a7.589,7.589,0,0,1,7.72.073l-6.674,3.593a11.362,11.362,0,0,0-4.263-1.919Zm-71.475,43.792-4.978-40.83h13.239l12.449,40.83ZM847.8,1057.66a22.886,22.886,0,0,1-14.048,1.951l-19.963-3.675a8.893,8.893,0,0,0-6.487.879c-.023.013-.047.026-.069.041l-9.183,5.8-6.54-21.453a14.488,14.488,0,0,0,5.45-3.049l3.268-2.91a20.577,20.577,0,0,1,21.37-2.055l1.372.665a17.421,17.421,0,0,0,7.541,1.726h13.312a8.42,8.42,0,0,1,8.257,6.837l-9.649-.436a57.75,57.75,0,0,0-10.5.485,1.492,1.492,0,0,0,.41,2.956,54.755,54.755,0,0,1,9.957-.46l11.355.514h.067a1.492,1.492,0,0,0,1.492-1.493c0-.24-.01-.48-.024-.717l1.557-.821,16.453-8.873a6.521,6.521,0,0,1,7.846,1.257Zm0,0" transform="translate(-769.807 -1027.114)"/></g><path class="a" d="M821.582,1180.082a4.7,4.7,0,1,0,4.7-4.7,4.7,4.7,0,0,0-4.7,4.7Zm4.7-1.714a1.714,1.714,0,1,1-1.714,1.714,1.713,1.713,0,0,1,1.714-1.714Zm0,0" transform="translate(-38.875 -304.38)"/><path class="a" d="M977.565,786.192v-4.917a11.327,11.327,0,0,0-22.655,0v4.917a11.327,11.327,0,0,0,22.655,0Zm-19.67,0v-4.917a8.343,8.343,0,0,1,16.685,0v4.917a8.343,8.343,0,0,1-16.685,0Zm0,0" transform="translate(-138.984 0)"/><path class="a" d="M842.643,913.307h36.517a1.493,1.493,0,0,0,1.492-1.492V908.39h25a1.492,1.492,0,0,0,1.492-1.492v-9.686a11.185,11.185,0,0,0-10.473-11.156,1.739,1.739,0,0,0-1.537.85,6.85,6.85,0,0,1-10.805-.265,1.491,1.491,0,0,0-1.236-.605,11.072,11.072,0,0,0-5.49,1.6,12.548,12.548,0,0,0-8.755-4.342,1.816,1.816,0,0,0-1.539.9,8.037,8.037,0,0,1-12.679-.31,1.49,1.49,0,0,0-1.237-.605,12.494,12.494,0,0,0-8.667,3.78c-.189.194-.368.393-.541.6a11.1,11.1,0,0,0-5.088-1.6,1.742,1.742,0,0,0-1.536.851,6.85,6.85,0,0,1-10.805-.265,1.5,1.5,0,0,0-1.238-.6,11.18,11.18,0,0,0-10.9,11.176V906.9a1.491,1.491,0,0,0,1.492,1.492h25.038v3.426a1.492,1.492,0,0,0,1.492,1.492Zm39.812-24.239a9.833,9.833,0,0,0,14.723.038,8.2,8.2,0,0,1,6.981,8.105V905.4H880.653v-9.572a12.5,12.5,0,0,0-1.378-5.715,8.067,8.067,0,0,1,3.181-1.049Zm-29.706-2.762a11.022,11.022,0,0,0,16.648.04,9.583,9.583,0,0,1,8.272,9.486v14.491H844.136V895.833a9.64,9.64,0,0,1,8.613-9.526Zm-35.143,19.1v-8.193a8.251,8.251,0,0,1,7.275-8.142,9.835,9.835,0,0,0,14.723.037,8.159,8.159,0,0,1,2.912,1.028,12.5,12.5,0,0,0-1.364,5.7V905.4Zm0,0" transform="translate(-33.648 -85.052)"/><path class="a" d="M1095.495,809.421v-4.3a10.1,10.1,0,0,0-20.2,0v4.3a10.1,10.1,0,1,0,20.2,0Zm-17.217,0v-4.3a7.116,7.116,0,1,1,14.232,0v4.3a7.116,7.116,0,1,1-14.232,0Zm0,0" transform="translate(-229.373 -18.783)"/><path class="a" d="M864.416,809.421v-4.3a10.1,10.1,0,1,0-20.2,0v4.3a10.1,10.1,0,1,0,20.2,0Zm-17.217,0v-4.3a7.116,7.116,0,1,1,14.233,0v4.3a7.116,7.116,0,1,1-14.233,0Zm0,0" transform="translate(-55.869 -18.783)"/></g></svg>