<svg xmlns="http://www.w3.org/2000/svg" width="88.837" height="109.247" viewBox="0 0 88.837 109.247"><defs><style>.a{fill:#007ecd;}</style></defs><g transform="translate(-843.867 -808)"><g transform="translate(843.867 808)"><path class="a" d="M980.645,1017.456a8.987,8.987,0,0,0-6.194-10.281c-.873-.309-1.667-.6-2.395-.883V994.54a7.566,7.566,0,0,1,3.794,1.61,1.6,1.6,0,0,0,2.162-2.36,10.916,10.916,0,0,0-5.958-2.473v-2.709a1.6,1.6,0,0,0-3.2,0v2.843a12.818,12.818,0,0,0-1.457.347,8.459,8.459,0,0,0-5.787,6.643,7.372,7.372,0,0,0,2.388,7.268,21.664,21.664,0,0,0,4.855,2.733V1022.9a9.792,9.792,0,0,1-5.85-1.964,1.6,1.6,0,1,0-1.752,2.678,12.8,12.8,0,0,0,7.6,2.487v3.021a1.6,1.6,0,1,0,3.2,0v-3.127a10.281,10.281,0,0,0,8.59-8.537Zm-14.669-14.265a4.213,4.213,0,0,1-1.22-4.158,5.305,5.305,0,0,1,3.566-4.172c.18-.054.358-.1.533-.143v10.206a15.689,15.689,0,0,1-2.879-1.733Zm7.408,7a5.841,5.841,0,0,1,4.1,6.732,7.135,7.135,0,0,1-5.433,5.81v-13.023c.426.158.865.317,1.328.481Zm0,0" transform="translate(-927.338 -936.081)"/><path class="a" d="M932.185,828.964l-10.328-12.673a2.262,2.262,0,0,0-3.673-.007l-10.33,12.677a1.8,1.8,0,0,0,1.414,3.072h3.5V858.59q-2.536-3.614-5.449-7.159c-4.1-4.985-6.959-8.716-8.647-11.912a3.616,3.616,0,0,0,2.225-3.335v-3.058a3.61,3.61,0,0,0-3.605-3.606h-.044c.944-3.723,3.373-8.177,7.254-14.574.456-.751,1.4-2.315.252-3.436s-2.777-.093-3.551.4c-1.642,1.054-3.055,1.511-3.873,1.255-.25-.079-.619-.269-.926-1.007-.1-.24-.2-.482-.29-.719-.722-1.815-1.4-3.532-3.114-3.44-1.677.086-2.508,1.916-3.456,5.262a2.524,2.524,0,0,1-4.91,0h0c-.943-3.345-1.774-5.176-3.453-5.263-1.709-.092-2.395,1.628-3.119,3.446-.094.234-.19.473-.289.715-.3.736-.671.926-.921,1-.819.257-2.229-.2-3.87-1.255-.777-.5-2.391-1.534-3.553-.406s-.207,2.682.249,3.437c3.88,6.4,6.308,10.851,7.252,14.574H876.5a3.613,3.613,0,0,0-3.612,3.606v3.058a3.618,3.618,0,0,0,2.566,3.456c-1.7,3.162-4.54,6.864-8.589,11.791q-2.161,2.625-4.1,5.307V841.379h3.181a1.791,1.791,0,0,0,1.428-3.023c-.007-.007-.012-.015-.019-.022l-9.691-11.889a2.32,2.32,0,0,0-1.8-.911h-.009a2.3,2.3,0,0,0-1.786.915l-9.692,11.89a1.79,1.79,0,0,0,1.413,3.04h3.181v44.39c-1.8,8.255-1.385,15.693,1.225,21.221,3.125,6.613,9.247,10.256,17.241,10.256h16.715a1.6,1.6,0,1,0,0-3.2H867.433c-6.782,0-11.743-2.913-14.346-8.422-2.336-4.947-2.649-11.756-.939-19.414.315-1.413.686-2.817,1.118-4.2a78.147,78.147,0,0,1,9.236-19.237c.011-.019.02-.039.031-.057a102.469,102.469,0,0,1,6.8-9.251c4.838-5.886,7.9-9.939,9.619-13.669h16.284c1.72,3.74,4.78,7.792,9.613,13.669,11.206,13.619,18.092,28.445,19.221,40.146,0,0,1.2,7.563-1.7,12.721-2.383,5.046-7.049,7.715-13.494,7.715H891.5a1.6,1.6,0,1,0,0,3.2h17.371c7.772,0,13.438-3.3,16.387-9.549,1.776-3.76,2.443-8.5,2.009-13.86,0-.012,0-.023,0-.036v-36.79a1.6,1.6,0,0,0-3.2,0v22.838a86.909,86.909,0,0,0-8.1-16.426V831.264a2.434,2.434,0,0,0-2.432-2.43h-1.448l7.929-9.733,7.93,9.733H926.5a2.434,2.434,0,0,0-2.432,2.43v18.4a1.6,1.6,0,1,0,3.2,0V832.033h3.5a1.8,1.8,0,0,0,1.416-3.069Zm-70.243,9.214a2.386,2.386,0,0,0-2.383,2.383v20.863a85.584,85.584,0,0,0-7.39,14.127v-34.99a2.386,2.386,0,0,0-2.384-2.383h-1.15l7.229-8.871,7.229,8.871Zm12.106-22.165a5.932,5.932,0,0,0,3.764.208,4.639,4.639,0,0,0,2.919-2.836c.1-.251.2-.5.3-.75.01-.027.021-.054.032-.082.142.416.3.936.488,1.582a5.723,5.723,0,0,0,11.069,0c.184-.647.347-1.166.489-1.581l.029.072c.1.25.2.5.307.759a4.655,4.655,0,0,0,2.925,2.836,5.935,5.935,0,0,0,3.757-.208c-3.32,5.63-5.381,9.777-6.169,13.5H880.217c-.788-3.729-2.849-7.877-6.169-13.506Zm23.649,20.17a.412.412,0,0,1-.4.41H876.5a.416.416,0,0,1-.411-.41v-3.06a.413.413,0,0,1,.411-.4h20.8a.409.409,0,0,1,.4.4Zm0,0" transform="translate(-843.867 -808)"/></g></g></svg>