<svg xmlns="http://www.w3.org/2000/svg" width="167.488" height="175.767" viewBox="0 0 167.488 175.767">
  <g id="Group_4033" data-name="Group 4033" transform="translate(61.878 -2654.204)">
    <g id="Group_3866" data-name="Group 3866" transform="translate(-42.404 2807.691)">
      <path id="Path_1809" data-name="Path 1809" d="M-3.343,3137.172v-19.561a.989.989,0,0,1,.989-.989H2.191a.989.989,0,0,1,.988.989v13.877a.989.989,0,0,0,.989.989h6.192a.989.989,0,0,1,.989.989v3.706a.989.989,0,0,1-.989.989H-2.354A.989.989,0,0,1-3.343,3137.172Z" transform="translate(3.343 -3116.267)" fill="#fdfeff"/>
      <path id="Path_1810" data-name="Path 1810" d="M63.622,3126.7c0-6.619,5.134-11.14,11.786-11.14s11.786,4.52,11.786,11.14-5.134,11.141-11.786,11.141S63.622,3133.315,63.622,3126.7Zm16.953,0a5.171,5.171,0,1,0-5.167,5.394A5.1,5.1,0,0,0,80.575,3126.7Z" transform="translate(-41.343 -3115.555)" fill="#fdfeff"/>
      <path id="Path_1811" data-name="Path 1811" d="M158.342,3126.7c0-6.651,5.1-11.14,11.851-11.14a9.988,9.988,0,0,1,9.355,5.379.943.943,0,0,1-.445,1.292l-3.877,1.8a.949.949,0,0,1-1.226-.4,4.512,4.512,0,0,0-3.808-2.329,5.4,5.4,0,0,0,0,10.786,4.514,4.514,0,0,0,3.81-2.333.949.949,0,0,1,1.222-.4l3.868,1.778a.955.955,0,0,1,.429,1.332,10.1,10.1,0,0,1-9.329,5.371C163.444,3137.836,158.342,3133.315,158.342,3126.7Z" transform="translate(-104.551 -3115.555)" fill="#fdfeff"/>
      <path id="Path_1812" data-name="Path 1812" d="M259.168,3137.542l-.394-1.281a.877.877,0,0,0-.838-.619h-6.454a.877.877,0,0,0-.838.619l-.394,1.281a.877.877,0,0,1-.838.619h-5.489a.877.877,0,0,1-.823-1.181l7.3-19.784a.877.877,0,0,1,.823-.574h6.98a.877.877,0,0,1,.823.574l7.3,19.784a.877.877,0,0,1-.823,1.181h-5.489A.877.877,0,0,1,259.168,3137.542Zm-5-12.749-1.359,4.428a.571.571,0,0,0,.545.738h2.719a.571.571,0,0,0,.545-.738l-1.359-4.428A.571.571,0,0,0,254.163,3124.792Z" transform="translate(-161.074 -3116.267)" fill="#fdfeff"/>
      <path id="Path_1813" data-name="Path 1813" d="M338.175,3137.748v-20.713a.412.412,0,0,1,.412-.413h5.7a.412.412,0,0,1,.412.413v15.031a.412.412,0,0,0,.413.412h7.345a.413.413,0,0,1,.413.412v4.859a.412.412,0,0,1-.413.413H338.587A.412.412,0,0,1,338.175,3137.748Z" transform="translate(-224.555 -3116.267)" fill="#fdfeff"/>
    </g>
    <g id="Group_3871" data-name="Group 3871" transform="translate(-61.878 2654.204)">
      <g id="Group_3869" data-name="Group 3869" transform="translate(0 0)">
        <g id="Group_3867" data-name="Group 3867" transform="translate(0 57.941)">
          <path id="Path_1814" data-name="Path 1814" d="M-7.647,2856.618a10.751,10.751,0,0,0-4.824-6.447,15.49,15.49,0,0,0-8.964-1.939q-8.607.406-13.032,6.737t-3.909,17.23q.523,11.066,5.323,17.042T-19.4,2894.8q7.663-.361,11.385-3.782a11.276,11.276,0,0,0,3.625-8.92l-15.247.72-.767-16.229,37.213-1.758.55,11.64q.542,11.475-3.93,19.84A32.317,32.317,0,0,1,.658,2909.4a42.453,42.453,0,0,1-19.284,5.243,43.22,43.22,0,0,1-21.762-4.188A36.451,36.451,0,0,1-55.536,2896.3q-5.64-9.387-6.267-22.666-.654-13.852,4.422-23.786a37.5,37.5,0,0,1,14.141-15.414,42.617,42.617,0,0,1,20.376-6.016,42.375,42.375,0,0,1,18.126,2.861,34.437,34.437,0,0,1,13.536,9.59,28.727,28.727,0,0,1,6.587,14.659Z" transform="translate(61.878 -2828.362)" fill="#fdfeff"/>
        </g>
        <g id="Group_3868" data-name="Group 3868" transform="translate(20.218)">
          <path id="Path_1815" data-name="Path 1815" d="M6.969,2705.992-1.1,2666.784l27.568-5.677,1.766,8.577-16.924,3.485,1.388,6.739,15.239-3.138,1.766,8.577-15.239,3.138,3.154,15.315Z" transform="translate(1.105 -2658.811)" fill="#fdfeff"/>
          <path id="Path_1816" data-name="Path 1816" d="M106.67,2695.115l-11.708.68,10.87-40.729,14.83-.861,15.512,39.2-11.708.68-2.747-7.516-13.191.766Zm3.846-16.044,8.274-.48-4.747-12.96-.312.018Z" transform="translate(-63.001 -2654.204)" fill="#fdfeff"/>
          <path id="Path_1817" data-name="Path 1817" d="M240.4,2655.594l-2.713,39.938-10.843-.736,2.713-39.939Z" transform="translate(-151.008 -2654.64)" fill="#fdfeff"/>
          <path id="Path_1818" data-name="Path 1818" d="M271.754,2697.858l7.437-39.334,16.978,3.21a17.675,17.675,0,0,1,7.362,3.043,12.149,12.149,0,0,1,4.241,5.556,13.8,13.8,0,0,1,.466,7.528,13.059,13.059,0,0,1-3.088,6.6,11.84,11.84,0,0,1-5.731,3.432l5.215,16.184-11.6-2.193-4.459-14.29-3.688-.7-2.455,12.983Zm14.7-19.261,3.764.712a7.866,7.866,0,0,0,4.6-.254,4.109,4.109,0,0,0,2.275-3.3,4.317,4.317,0,0,0-.9-3.989,7.517,7.517,0,0,0-4.18-1.984l-3.764-.712Z" transform="translate(-180.976 -2657.087)" fill="#fdfeff"/>
        </g>
      </g>
      <path id="Path_1819" data-name="Path 1819" d="M272.162,2848.124a36.456,36.456,0,0,0-14.73-14.566,45.837,45.837,0,0,0-41.42,0,36.342,36.342,0,0,0-14.689,14.566q-5.437,9.621-5.436,23.652,0,13.952,5.436,23.573a36.614,36.614,0,0,0,14.689,14.605,45.683,45.683,0,0,0,41.42.041,36.44,36.44,0,0,0,14.73-14.565q5.456-9.622,5.457-23.654T272.162,2848.124Zm-19.935,49.039c-1.617-.043-3.969-3.905-3.626-5.039s1.284-.139,2.842.318c2.113.619,2.548-1.459,3.48-.515C255.216,2893.644,253.844,2897.206,252.227,2897.163Zm10.146-21.751c-.336,2.589-4.953,9.359-6.014,11.335-1.03,1.918-2.744,1.794-7.03,1.71s-3.8-.178-4.978-3.344-5-4.138-9.794-6.239-7.227,2.436-11.681,4.033-5.21,3.11-7.311,2.857.252-1.513-1.765-5.295c-4.622-10.084-5.294-13.026-3.025-14.286a77.952,77.952,0,0,0,8.74-5.042c2.857-2.1,3.025-5.8,4.9-7.815s2.156,1.177,4.257,1.345,1.008-1.681,1.6-3.109,5.294-2.27,8.356-2.1.888,2.1.131,3.391,1.849,1.987,5.462,4.424c3.236,2.183,3.642-3.52,3.993-7.874a1.013,1.013,0,0,1,1.441-.834l.112.053c1.429.672,2.773,5.8,3.782,9.412s2.017,3.613,5.714,7.9S262.71,2872.823,262.373,2875.412Z" transform="translate(-110.131 -2770.589)" fill="#fdfeff"/>
    </g>
  </g>
</svg>
