<svg xmlns="http://www.w3.org/2000/svg" width="31.954" height="31.954" viewBox="0 0 31.954 31.954"><defs><style>.a{fill:#f4f6f7;}</style></defs><path class="a" d="M2.881.213a3.8,3.8,0,0,0-1.748.993A3.516,3.516,0,0,0,.165,2.873c-.112.443-.119.862-.119,13.193C.04,29.921.021,29.159.383,29.939a3.727,3.727,0,0,0,1.817,1.8c.805.356.019.337,13.98.318l12.862-.012.4-.137a3.787,3.787,0,0,0,2.4-2.4l.137-.4.012-12.862c.019-14.286.05-13.218-.406-14.142A3.709,3.709,0,0,0,30,.532c-.912-.45.125-.418-14.011-.412C5.185.126,3.2.138,2.881.213Zm24.887,3.8c.512.362.524.4.543,2.778.019,2.316.006,2.435-.375,2.8-.343.337-.506.356-2.766.35l-2.06-.006-.281-.15a1.535,1.535,0,0,1-.462-.437l-.187-.275-.006-2.067c-.006-1.13.019-2.16.05-2.279a1.166,1.166,0,0,1,.637-.787l.312-.156,2.167.019,2.16.019Zm-10.5,6.063a6.2,6.2,0,0,1,4.783,4.808,7.627,7.627,0,0,1,.069,2.029,6.289,6.289,0,0,1-3.2,4.6,6.7,6.7,0,0,1-1.648.612c-.119.012-.368.05-.556.081a6.168,6.168,0,0,1-5.569-2.385,6.109,6.109,0,0,1,.119-7.586,6.225,6.225,0,0,1,4.121-2.241A6.516,6.516,0,0,1,17.266,10.078ZM6.4,14.13a9.909,9.909,0,0,0,.824,6.337,9.185,9.185,0,0,0,1.867,2.566,9.738,9.738,0,0,0,8.5,2.772,9.891,9.891,0,0,0,7.954-7.243,9.7,9.7,0,0,0,.256-3.5,6.875,6.875,0,0,0-.256-1.349c-.019-.031-.012-.056.019-.062.237-.025,2.666-.019,2.71.012s.05,2.791.044,6.968l-.019,6.937-.187.268a1.56,1.56,0,0,1-.468.412l-.281.144-11.4-.019L4.56,28.366,4.3,28.2a1.642,1.642,0,0,1-.4-.406l-.15-.237-.019-6.9c-.006-3.8-.006-6.924.012-6.962a6.719,6.719,0,0,1,1.392-.062H6.508Z" transform="translate(-0.044 -0.117)"/></svg>