<svg xmlns="http://www.w3.org/2000/svg" width="32.143" height="32.143" viewBox="0 0 32.143 32.143"><defs><style>.a{fill:#f4f6f7;}</style></defs><path class="a" d="M28.7,2.25H3.444A3.444,3.444,0,0,0,0,5.694V30.949a3.444,3.444,0,0,0,3.444,3.444h9.847V23.465H8.771V18.321h4.52V14.4c0-4.459,2.655-6.922,6.721-6.922a27.383,27.383,0,0,1,3.983.347V12.2H21.751a2.572,2.572,0,0,0-2.9,2.779v3.34h4.935L23,23.465H18.851V34.393H28.7a3.444,3.444,0,0,0,3.444-3.444V5.694A3.444,3.444,0,0,0,28.7,2.25Z" transform="translate(0 -2.25)"/></svg>